<svg version="1.1" xmlns="http://www.w3.org/2000/svg" viewBox="0 0 387.81562074348324 403.3991680845618" width="1163.4468622304498" height="1210.1975042536853">
  <!-- svg-source:excalidraw -->
  
  <defs>
    <style>
      @font-face {
        font-family: "Virgil";
        src: url("https://excalidraw.com/FG_Virgil.woff2");
      }
      @font-face {
        font-family: "Cascadia";
        src: url("https://excalidraw.com/Cascadia.woff2");
      }
    </style>
  </defs>
  <g><g transform="translate(53.5392855998781 11.099570309370733) rotate(0 -0.6102859800791975 157.12853199057747)"><path d="M0.13014233037829404 -1.099570309370756 C0.056124823591665055 51.21138940912982, -0.36546631504319316 261.8256556293617, -0.8976831321325565 314.3977077245712 M-1.260671675512567 0.9375513328704983 C-1.3618827062426202 53.309916778340316, -1.382520219734904 263.0066222557767, -1.2988905045390537 315.3566342905257" stroke="#000000" stroke-width="1" fill="none"></path></g></g><g><g transform="translate(22 305.79913146346803) rotate(0 177.4154379300773 1.6239884037524348)"><path d="M-0.9847448833286762 -0.2202631585299969 C58.35901379709442 0.09291236199127678, 296.4645584436754 2.5901987422102213, 355.81562074348324 3.0563855847529795 M0.6991253235843033 -1.3815052620973438 C59.87821323473316 -0.3510333781627364, 295.23421881923133 3.786187204786864, 354.69803944407954 4.629482069602209" stroke="#000000" stroke-width="1" fill="none"></path></g></g><g><g transform="translate(39.600006103515625 277.79913146346803) rotate(0 15.92282063825985 1.1242718704045274)"><path d="M0.691036581248045 -0.5731865756213664 C5.702210981895526 -0.271896452953418, 25.13172225082914 2.4737521139283976, 30.110820388048886 2.8217303164303305 M-0.405307942936197 1.7402865268383176 C4.958710661123817 2.1941195758773637, 27.27225222298565 0.8160380808108797, 32.25094921945594 0.9205511663947255" stroke="#000000" stroke-width="1" fill="none"></path></g></g><g><g transform="translate(41.199981689453125 234.59921080917115) rotate(0 11.140952836722136 -2.5847508329106574)"><path d="M-1.0011934764683246 0.18969739750027648 C2.990437721461057 -0.37716255510846786, 19.379867457598447 -3.000030274440845, 23.283099149912594 -3.499425780028105 M0.6740412190463396 -0.7563154141511768 C4.643255370846019 -1.6764090936786182, 19.300668322732673 -4.731469380299871, 22.798667922606693 -5.359199063321576" stroke="#000000" stroke-width="1" fill="none"></path></g></g><g><g transform="translate(40.399993896484375 184.99914367049928) rotate(0 10.070730617116226 -0.14261520340573952)"><path d="M1.0622786276042462 -1.1483669154345988 C4.42318752532204 -0.8482985131442546, 16.84544476593534 0.5976297982037068, 19.9806250564754 0.7521011240780353 M0.16083617775700998 0.8631365086231382 C3.378200957964485 0.9151085703168065, 15.875684399098777 -0.99503776951693, 19.02240774749778 -0.9756205345597119" stroke="#000000" stroke-width="1" fill="none"></path></g></g><g><g transform="translate(42.800018310546875 147.39913756698365) rotate(0 10.937283816775334 0.3991913626061887)"><path d="M0.4928527347743512 -0.7056397072970867 C3.924903447677692 -0.7892619483172894, 16.99486500347654 -0.6893411748111248, 20.465664648264646 -0.723272406309843 M-0.70753830880858 1.5382955010328443 C3.0883198757873225 1.6151393316779288, 19.063560942501454 0.7023314966354521, 22.582105942359195 0.43443483159877383" stroke="#000000" stroke-width="1" fill="none"></path></g></g><g><g transform="translate(41.999969482421875 115.39913756698365) rotate(0 14.905561479344044 -0.03752526956611746)"><path d="M0.2649874337017537 -0.7915877826511859 C5.560884591688712 -0.638082195073366, 25.797935848186412 0.4702898018062115, 30.866155851632357 0.4198685400187969 M-1.0550328929442911 1.4072246861178428 C4.133187916058427 1.2356884553749115, 24.62822795895549 -1.1892312640231104, 29.742835801420732 -1.4822752252500506" stroke="#000000" stroke-width="1" fill="none"></path></g></g><g><g transform="translate(41.999969482421875 72.19915587753053) rotate(0 11.522168637067068 -2.0923429377376976)"><path d="M-1.0572264544665813 0.22181644365191455 C2.9071211226284506 -0.5878305363158386, 20.037598384171726 -3.846102317919334, 24.10156372860074 -4.406502319127322 M0.588590927598998 -0.7073338687699289 C4.446198625741527 -1.3876777650198588, 19.95371332633309 -2.3617292466045665, 23.62683281379752 -3.0824907854478805" stroke="#000000" stroke-width="1" fill="none"></path></g></g><g><g transform="translate(43.600006103515625 32.19915587753053) rotate(0 11.414408766478346 0.5977912548231075)"><path d="M-0.9132153756916523 -1.0194000117480755 C2.9005540363490576 -0.9561124118665854, 19.537195228785276 0.7508836078147095, 23.742032908648252 1.270527256280184 M0.8082078227307647 1.0598110367450864 C4.3661848872806885 1.1506929088228692, 18.84060385494493 1.848676960427935, 22.658554722061382 2.2149825213942678" stroke="#000000" stroke-width="1" fill="none"></path></g></g><g><g transform="translate(85.42422033604169 309.1741937055581) rotate(88.7862923715081 14.873175112674971 1.9412533365236868)"><path d="M0.07976915761828418 0.9370073921978472 C5.105294449379047 1.5701624440650144, 25.852745476613443 3.3858839479585487, 31.08384098932147 3.4991743452847004 M-1.337490763971582 0.3833323277626186 C3.438412949036186 0.7332593938304732, 24.71181264230671 1.5970391277068605, 30.074805636396633 1.95365331039764" stroke="#000000" stroke-width="1" fill="none"></path></g></g><g><g transform="translate(136.57700544535476 311.4754404194134) rotate(88.7862923715081 11.734485944523499 -2.9162963377823985)"><path d="M0.9370073921978472 -0.11617121770977978 C4.903495777398348 -0.7517444061736266, 20.052550614625215 -3.1113574353357154, 23.4991743452847 -3.7336699731647967 M-0.03020245623774831 -1.2227650523465128 C3.9006689061503854 -2.2476464165529855, 19.106510137198494 -5.511243300664549, 23.128182595549152 -5.716421457855031" stroke="#000000" stroke-width="1" fill="none"></path></g></g><g><g transform="translate(185.44367780612822 304.19697804022053) rotate(88.7862923715081 9.315015095244178 0.1579376466572171)"><path d="M-0.11617121770977978 1.0991499312222002 C3.2482555938263733 0.8124362595379351, 16.888642564664284 -0.6014277569949628, 20.266330026835202 -0.7832746379077434 M-1.6362998363468797 0.6305996997747569 C1.5864297624335932 0.3977290986571459, 15.941561042160416 0.22639945880509887, 19.45810782729648 0.3429314284119753" stroke="#000000" stroke-width="1" fill="none"></path></g></g><g><g transform="translate(220.37837486049796 307.7549406626508) rotate(88.7862923715081 11.667250607637698 0.5633268843311612)"><path d="M1.0991499312222002 0.2663300268352031 C4.412432190527518 0.31068415567278856, 17.398551897952952 0.08074209615588186, 20.816700948029755 0.14995355531573296 M0.21706491577439024 -0.6394506544154137 C3.831801208633309 -0.3674428597372025, 19.67918345657798 1.8767084848601372, 23.117436299500987 1.7661044230777772" stroke="#000000" stroke-width="1" fill="none"></path></g></g><g><g transform="translate(249.05756215336078 309.8662097284964) rotate(88.7862923715081 15.148490161965583 0.4524877311907858)"><path d="M0.2663300268352031 -0.7832746379077434 C5.5106861901779975 -0.9651215188205241, 26.080752268681923 -0.09827645942568769, 31.349965762346983 0.008068645745515912 M-1.0529854384157806 1.4199022318515926 C4.056635353754585 1.9569534866604954, 25.059523000211144 1.6037051875982433, 30.48064591526054 1.549729935983196" stroke="#000000" stroke-width="1" fill="none"></path></g></g><g><g transform="translate(299.0189904293925 307.87320904806165) rotate(88.7862923715081 11.212403107434511 -2.466591525613353)"><path d="M-0.7832746379077434 0.14995355531573296 C2.901547182351351 -0.44750165219108273, 19.235067046433688 -2.4363062707086405, 23.208080852776767 -3.3184012182056906 M1.006367447851226 -0.816924773482606 C4.43769836681895 -1.7836762167296063, 18.729853036282584 -4.48179027460826, 22.26427142816596 -5.083136606542394" stroke="#000000" stroke-width="1" fill="none"></path></g></g><g><g transform="translate(334.73453166722004 305.4113984095163) rotate(88.7862923715081 11.725569612155653 1.3413418883177997)"><path d="M0.14995355531573296 0.008068645745515912 C4.219165014475585 0.5144127336641154, 20.897027062624694 1.9933348702887697, 24.68159878179431 2.2547898896038534 M-1.2304595574829729 -1.033299260577187 C2.71706662892364 -0.2667562442428122, 19.69434740155004 3.1334151357008766, 24.091392678609118 3.7159830372128635" stroke="#000000" stroke-width="1" fill="none"></path></g></g><g transform="translate(93.19998168945312 272.9991436704993) rotate(0 4.000030517578125 3.9999847412109375)"><path d="M4.000030517578125 0 C4.814234368349422 -0.05106943472608901, 5.9146570616459835 0.38491954427824027, 6.571200572645379 0.9358186576455951 C7.227744083644775 1.48671777101295, 7.790465252063095 2.461368271175661, 7.939291583574498 3.305394680204129 C8.0881179150859 4.149421089232598, 7.892686904225007 5.257752744219912, 7.464158561713798 5.9999771118164045 C7.03563021920259 6.742201479412897, 6.173491371018043 7.46561359012197, 5.3681215285072446 7.758740885783084 C4.562751685996446 8.051868181444197, 3.4373093491598046 8.051868181444197, 2.631939506649006 7.758740885783085 C1.8265696641382072 7.465613590121971, 0.964430815953661 6.7422014794128975, 0.535902473442452 5.9999771118164045 C0.10737413093124304 5.2577527442199115, -0.08805687992965106 4.149421089232597, 0.060769451581752065 3.3053946802041287 C0.20959578309315519 2.461368271175661, 0.7723169515114754 1.4867177710129504, 1.4288604625108707 0.9358186576455956 C2.085403973510266 0.3849195442782408, 3.571502175066915 0.14263649380356277, 4.000030517578124 0 C4.428558860089333 -0.14263649380356277, 4.000030517578125 0.013333282470703381, 4.000030517578125 0.07999969482421898 M4.000030517578125 0 C4.814234368349422 -0.05106943472608901, 5.9146570616459835 0.38491954427824027, 6.571200572645379 0.9358186576455951 C7.227744083644775 1.48671777101295, 7.790465252063095 2.461368271175661, 7.939291583574498 3.305394680204129 C8.0881179150859 4.149421089232598, 7.892686904225007 5.257752744219912, 7.464158561713798 5.9999771118164045 C7.03563021920259 6.742201479412897, 6.173491371018043 7.46561359012197, 5.3681215285072446 7.758740885783084 C4.562751685996446 8.051868181444197, 3.4373093491598046 8.051868181444197, 2.631939506649006 7.758740885783085 C1.8265696641382072 7.465613590121971, 0.964430815953661 6.7422014794128975, 0.535902473442452 5.9999771118164045 C0.10737413093124304 5.2577527442199115, -0.08805687992965106 4.149421089232597, 0.060769451581752065 3.3053946802041287 C0.20959578309315519 2.461368271175661, 0.7723169515114754 1.4867177710129504, 1.4288604625108707 0.9358186576455956 C2.085403973510266 0.3849195442782408, 3.571502175066915 0.14263649380356277, 4.000030517578124 0 C4.428558860089333 -0.14263649380356277, 4.000030517578125 0.013333282470703381, 4.000030517578125 0.07999969482421898" stroke="none" stroke-width="0" fill="#868e96"></path><path d="M4.000030517578125 0 C4.814234368349422 -0.05106943472608901, 5.9146570616459835 0.38491954427824027, 6.571200572645379 0.9358186576455951 C7.227744083644775 1.48671777101295, 7.790465252063095 2.461368271175661, 7.939291583574498 3.305394680204129 C8.0881179150859 4.149421089232598, 7.892686904225007 5.257752744219912, 7.464158561713798 5.9999771118164045 C7.03563021920259 6.742201479412897, 6.173491371018043 7.46561359012197, 5.3681215285072446 7.758740885783084 C4.562751685996446 8.051868181444197, 3.4373093491598046 8.051868181444197, 2.631939506649006 7.758740885783085 C1.8265696641382072 7.465613590121971, 0.964430815953661 6.7422014794128975, 0.535902473442452 5.9999771118164045 C0.10737413093124304 5.2577527442199115, -0.08805687992965106 4.149421089232597, 0.060769451581752065 3.3053946802041287 C0.20959578309315519 2.461368271175661, 0.7723169515114754 1.4867177710129504, 1.4288604625108707 0.9358186576455956 C2.085403973510266 0.3849195442782408, 3.571502175066915 0.14263649380356277, 4.000030517578124 0 C4.428558860089333 -0.14263649380356277, 4.000030517578125 0.013333282470703381, 4.000030517578125 0.07999969482421898 M4.000030517578125 0 C4.814234368349422 -0.05106943472608901, 5.9146570616459835 0.38491954427824027, 6.571200572645379 0.9358186576455951 C7.227744083644775 1.48671777101295, 7.790465252063095 2.461368271175661, 7.939291583574498 3.305394680204129 C8.0881179150859 4.149421089232598, 7.892686904225007 5.257752744219912, 7.464158561713798 5.9999771118164045 C7.03563021920259 6.742201479412897, 6.173491371018043 7.46561359012197, 5.3681215285072446 7.758740885783084 C4.562751685996446 8.051868181444197, 3.4373093491598046 8.051868181444197, 2.631939506649006 7.758740885783085 C1.8265696641382072 7.465613590121971, 0.964430815953661 6.7422014794128975, 0.535902473442452 5.9999771118164045 C0.10737413093124304 5.2577527442199115, -0.08805687992965106 4.149421089232597, 0.060769451581752065 3.3053946802041287 C0.20959578309315519 2.461368271175661, 0.7723169515114754 1.4867177710129504, 1.4288604625108707 0.9358186576455956 C2.085403973510266 0.3849195442782408, 3.571502175066915 0.14263649380356277, 4.000030517578124 0 C4.428558860089333 -0.14263649380356277, 4.000030517578125 0.013333282470703381, 4.000030517578125 0.07999969482421898" stroke="#000000" stroke-width="1" fill="none"></path></g><g transform="translate(131.7999267578125 224.39918334335084) rotate(0 4.000030517578125 3.9999847412109375)"><path d="M4.000030517578125 0 C4.814234368349422 -0.05106943472608901, 5.9146570616459835 0.38491954427824027, 6.571200572645379 0.9358186576455951 C7.227744083644775 1.48671777101295, 7.790465252063095 2.461368271175661, 7.939291583574498 3.305394680204129 C8.0881179150859 4.149421089232598, 7.892686904225007 5.257752744219912, 7.464158561713798 5.9999771118164045 C7.03563021920259 6.742201479412897, 6.173491371018043 7.46561359012197, 5.3681215285072446 7.758740885783084 C4.562751685996446 8.051868181444197, 3.4373093491598046 8.051868181444197, 2.631939506649006 7.758740885783085 C1.8265696641382072 7.465613590121971, 0.964430815953661 6.7422014794128975, 0.535902473442452 5.9999771118164045 C0.10737413093124304 5.2577527442199115, -0.08805687992965106 4.149421089232597, 0.060769451581752065 3.3053946802041287 C0.20959578309315519 2.461368271175661, 0.7723169515114754 1.4867177710129504, 1.4288604625108707 0.9358186576455956 C2.085403973510266 0.3849195442782408, 3.571502175066915 0.14263649380356277, 4.000030517578124 0 C4.428558860089333 -0.14263649380356277, 4.000030517578125 0.013333282470703381, 4.000030517578125 0.07999969482421898 M4.000030517578125 0 C4.814234368349422 -0.05106943472608901, 5.9146570616459835 0.38491954427824027, 6.571200572645379 0.9358186576455951 C7.227744083644775 1.48671777101295, 7.790465252063095 2.461368271175661, 7.939291583574498 3.305394680204129 C8.0881179150859 4.149421089232598, 7.892686904225007 5.257752744219912, 7.464158561713798 5.9999771118164045 C7.03563021920259 6.742201479412897, 6.173491371018043 7.46561359012197, 5.3681215285072446 7.758740885783084 C4.562751685996446 8.051868181444197, 3.4373093491598046 8.051868181444197, 2.631939506649006 7.758740885783085 C1.8265696641382072 7.465613590121971, 0.964430815953661 6.7422014794128975, 0.535902473442452 5.9999771118164045 C0.10737413093124304 5.2577527442199115, -0.08805687992965106 4.149421089232597, 0.060769451581752065 3.3053946802041287 C0.20959578309315519 2.461368271175661, 0.7723169515114754 1.4867177710129504, 1.4288604625108707 0.9358186576455956 C2.085403973510266 0.3849195442782408, 3.571502175066915 0.14263649380356277, 4.000030517578124 0 C4.428558860089333 -0.14263649380356277, 4.000030517578125 0.013333282470703381, 4.000030517578125 0.07999969482421898" stroke="none" stroke-width="0" fill="#868e96"></path><path d="M4.000030517578125 0 C4.814234368349422 -0.05106943472608901, 5.9146570616459835 0.38491954427824027, 6.571200572645379 0.9358186576455951 C7.227744083644775 1.48671777101295, 7.790465252063095 2.461368271175661, 7.939291583574498 3.305394680204129 C8.0881179150859 4.149421089232598, 7.892686904225007 5.257752744219912, 7.464158561713798 5.9999771118164045 C7.03563021920259 6.742201479412897, 6.173491371018043 7.46561359012197, 5.3681215285072446 7.758740885783084 C4.562751685996446 8.051868181444197, 3.4373093491598046 8.051868181444197, 2.631939506649006 7.758740885783085 C1.8265696641382072 7.465613590121971, 0.964430815953661 6.7422014794128975, 0.535902473442452 5.9999771118164045 C0.10737413093124304 5.2577527442199115, -0.08805687992965106 4.149421089232597, 0.060769451581752065 3.3053946802041287 C0.20959578309315519 2.461368271175661, 0.7723169515114754 1.4867177710129504, 1.4288604625108707 0.9358186576455956 C2.085403973510266 0.3849195442782408, 3.571502175066915 0.14263649380356277, 4.000030517578124 0 C4.428558860089333 -0.14263649380356277, 4.000030517578125 0.013333282470703381, 4.000030517578125 0.07999969482421898 M4.000030517578125 0 C4.814234368349422 -0.05106943472608901, 5.9146570616459835 0.38491954427824027, 6.571200572645379 0.9358186576455951 C7.227744083644775 1.48671777101295, 7.790465252063095 2.461368271175661, 7.939291583574498 3.305394680204129 C8.0881179150859 4.149421089232598, 7.892686904225007 5.257752744219912, 7.464158561713798 5.9999771118164045 C7.03563021920259 6.742201479412897, 6.173491371018043 7.46561359012197, 5.3681215285072446 7.758740885783084 C4.562751685996446 8.051868181444197, 3.4373093491598046 8.051868181444197, 2.631939506649006 7.758740885783085 C1.8265696641382072 7.465613590121971, 0.964430815953661 6.7422014794128975, 0.535902473442452 5.9999771118164045 C0.10737413093124304 5.2577527442199115, -0.08805687992965106 4.149421089232597, 0.060769451581752065 3.3053946802041287 C0.20959578309315519 2.461368271175661, 0.7723169515114754 1.4867177710129504, 1.4288604625108707 0.9358186576455956 C2.085403973510266 0.3849195442782408, 3.571502175066915 0.14263649380356277, 4.000030517578124 0 C4.428558860089333 -0.14263649380356277, 4.000030517578125 0.013333282470703381, 4.000030517578125 0.07999969482421898" stroke="#000000" stroke-width="1" fill="none"></path></g><g transform="translate(170.199951171875 184.19914061874147) rotate(0 4.000030517578125 3.9999847412109375)"><path d="M4.000030517578125 0 C4.814234368349422 -0.05106943472608901, 5.9146570616459835 0.38491954427824027, 6.571200572645379 0.9358186576455951 C7.227744083644775 1.48671777101295, 7.790465252063095 2.461368271175661, 7.939291583574498 3.305394680204129 C8.0881179150859 4.149421089232598, 7.892686904225007 5.257752744219912, 7.464158561713798 5.9999771118164045 C7.03563021920259 6.742201479412897, 6.173491371018043 7.46561359012197, 5.3681215285072446 7.758740885783084 C4.562751685996446 8.051868181444197, 3.4373093491598046 8.051868181444197, 2.631939506649006 7.758740885783085 C1.8265696641382072 7.465613590121971, 0.964430815953661 6.7422014794128975, 0.535902473442452 5.9999771118164045 C0.10737413093124304 5.2577527442199115, -0.08805687992965106 4.149421089232597, 0.060769451581752065 3.3053946802041287 C0.20959578309315519 2.461368271175661, 0.7723169515114754 1.4867177710129504, 1.4288604625108707 0.9358186576455956 C2.085403973510266 0.3849195442782408, 3.571502175066915 0.14263649380356277, 4.000030517578124 0 C4.428558860089333 -0.14263649380356277, 4.000030517578125 0.013333282470703381, 4.000030517578125 0.07999969482421898 M4.000030517578125 0 C4.814234368349422 -0.05106943472608901, 5.9146570616459835 0.38491954427824027, 6.571200572645379 0.9358186576455951 C7.227744083644775 1.48671777101295, 7.790465252063095 2.461368271175661, 7.939291583574498 3.305394680204129 C8.0881179150859 4.149421089232598, 7.892686904225007 5.257752744219912, 7.464158561713798 5.9999771118164045 C7.03563021920259 6.742201479412897, 6.173491371018043 7.46561359012197, 5.3681215285072446 7.758740885783084 C4.562751685996446 8.051868181444197, 3.4373093491598046 8.051868181444197, 2.631939506649006 7.758740885783085 C1.8265696641382072 7.465613590121971, 0.964430815953661 6.7422014794128975, 0.535902473442452 5.9999771118164045 C0.10737413093124304 5.2577527442199115, -0.08805687992965106 4.149421089232597, 0.060769451581752065 3.3053946802041287 C0.20959578309315519 2.461368271175661, 0.7723169515114754 1.4867177710129504, 1.4288604625108707 0.9358186576455956 C2.085403973510266 0.3849195442782408, 3.571502175066915 0.14263649380356277, 4.000030517578124 0 C4.428558860089333 -0.14263649380356277, 4.000030517578125 0.013333282470703381, 4.000030517578125 0.07999969482421898" stroke="none" stroke-width="0" fill="#868e96"></path><path d="M4.000030517578125 0 C4.814234368349422 -0.05106943472608901, 5.9146570616459835 0.38491954427824027, 6.571200572645379 0.9358186576455951 C7.227744083644775 1.48671777101295, 7.790465252063095 2.461368271175661, 7.939291583574498 3.305394680204129 C8.0881179150859 4.149421089232598, 7.892686904225007 5.257752744219912, 7.464158561713798 5.9999771118164045 C7.03563021920259 6.742201479412897, 6.173491371018043 7.46561359012197, 5.3681215285072446 7.758740885783084 C4.562751685996446 8.051868181444197, 3.4373093491598046 8.051868181444197, 2.631939506649006 7.758740885783085 C1.8265696641382072 7.465613590121971, 0.964430815953661 6.7422014794128975, 0.535902473442452 5.9999771118164045 C0.10737413093124304 5.2577527442199115, -0.08805687992965106 4.149421089232597, 0.060769451581752065 3.3053946802041287 C0.20959578309315519 2.461368271175661, 0.7723169515114754 1.4867177710129504, 1.4288604625108707 0.9358186576455956 C2.085403973510266 0.3849195442782408, 3.571502175066915 0.14263649380356277, 4.000030517578124 0 C4.428558860089333 -0.14263649380356277, 4.000030517578125 0.013333282470703381, 4.000030517578125 0.07999969482421898 M4.000030517578125 0 C4.814234368349422 -0.05106943472608901, 5.9146570616459835 0.38491954427824027, 6.571200572645379 0.9358186576455951 C7.227744083644775 1.48671777101295, 7.790465252063095 2.461368271175661, 7.939291583574498 3.305394680204129 C8.0881179150859 4.149421089232598, 7.892686904225007 5.257752744219912, 7.464158561713798 5.9999771118164045 C7.03563021920259 6.742201479412897, 6.173491371018043 7.46561359012197, 5.3681215285072446 7.758740885783084 C4.562751685996446 8.051868181444197, 3.4373093491598046 8.051868181444197, 2.631939506649006 7.758740885783085 C1.8265696641382072 7.465613590121971, 0.964430815953661 6.7422014794128975, 0.535902473442452 5.9999771118164045 C0.10737413093124304 5.2577527442199115, -0.08805687992965106 4.149421089232597, 0.060769451581752065 3.3053946802041287 C0.20959578309315519 2.461368271175661, 0.7723169515114754 1.4867177710129504, 1.4288604625108707 0.9358186576455956 C2.085403973510266 0.3849195442782408, 3.571502175066915 0.14263649380356277, 4.000030517578124 0 C4.428558860089333 -0.14263649380356277, 4.000030517578125 0.013333282470703381, 4.000030517578125 0.07999969482421898" stroke="#000000" stroke-width="1" fill="none"></path></g><g transform="translate(213.199951171875 140.7991467222571) rotate(0 4.000030517578125 3.9999847412109375)"><path d="M4.000030517578125 0 C4.814234368349422 -0.05106943472608901, 5.9146570616459835 0.38491954427824027, 6.571200572645379 0.9358186576455951 C7.227744083644775 1.48671777101295, 7.790465252063095 2.461368271175661, 7.939291583574498 3.305394680204129 C8.0881179150859 4.149421089232598, 7.892686904225007 5.257752744219912, 7.464158561713798 5.9999771118164045 C7.03563021920259 6.742201479412897, 6.173491371018043 7.46561359012197, 5.3681215285072446 7.758740885783084 C4.562751685996446 8.051868181444197, 3.4373093491598046 8.051868181444197, 2.631939506649006 7.758740885783085 C1.8265696641382072 7.465613590121971, 0.964430815953661 6.7422014794128975, 0.535902473442452 5.9999771118164045 C0.10737413093124304 5.2577527442199115, -0.08805687992965106 4.149421089232597, 0.060769451581752065 3.3053946802041287 C0.20959578309315519 2.461368271175661, 0.7723169515114754 1.4867177710129504, 1.4288604625108707 0.9358186576455956 C2.085403973510266 0.3849195442782408, 3.571502175066915 0.14263649380356277, 4.000030517578124 0 C4.428558860089333 -0.14263649380356277, 4.000030517578125 0.013333282470703381, 4.000030517578125 0.07999969482421898 M4.000030517578125 0 C4.814234368349422 -0.05106943472608901, 5.9146570616459835 0.38491954427824027, 6.571200572645379 0.9358186576455951 C7.227744083644775 1.48671777101295, 7.790465252063095 2.461368271175661, 7.939291583574498 3.305394680204129 C8.0881179150859 4.149421089232598, 7.892686904225007 5.257752744219912, 7.464158561713798 5.9999771118164045 C7.03563021920259 6.742201479412897, 6.173491371018043 7.46561359012197, 5.3681215285072446 7.758740885783084 C4.562751685996446 8.051868181444197, 3.4373093491598046 8.051868181444197, 2.631939506649006 7.758740885783085 C1.8265696641382072 7.465613590121971, 0.964430815953661 6.7422014794128975, 0.535902473442452 5.9999771118164045 C0.10737413093124304 5.2577527442199115, -0.08805687992965106 4.149421089232597, 0.060769451581752065 3.3053946802041287 C0.20959578309315519 2.461368271175661, 0.7723169515114754 1.4867177710129504, 1.4288604625108707 0.9358186576455956 C2.085403973510266 0.3849195442782408, 3.571502175066915 0.14263649380356277, 4.000030517578124 0 C4.428558860089333 -0.14263649380356277, 4.000030517578125 0.013333282470703381, 4.000030517578125 0.07999969482421898" stroke="none" stroke-width="0" fill="#868e96"></path><path d="M4.000030517578125 0 C4.814234368349422 -0.05106943472608901, 5.9146570616459835 0.38491954427824027, 6.571200572645379 0.9358186576455951 C7.227744083644775 1.48671777101295, 7.790465252063095 2.461368271175661, 7.939291583574498 3.305394680204129 C8.0881179150859 4.149421089232598, 7.892686904225007 5.257752744219912, 7.464158561713798 5.9999771118164045 C7.03563021920259 6.742201479412897, 6.173491371018043 7.46561359012197, 5.3681215285072446 7.758740885783084 C4.562751685996446 8.051868181444197, 3.4373093491598046 8.051868181444197, 2.631939506649006 7.758740885783085 C1.8265696641382072 7.465613590121971, 0.964430815953661 6.7422014794128975, 0.535902473442452 5.9999771118164045 C0.10737413093124304 5.2577527442199115, -0.08805687992965106 4.149421089232597, 0.060769451581752065 3.3053946802041287 C0.20959578309315519 2.461368271175661, 0.7723169515114754 1.4867177710129504, 1.4288604625108707 0.9358186576455956 C2.085403973510266 0.3849195442782408, 3.571502175066915 0.14263649380356277, 4.000030517578124 0 C4.428558860089333 -0.14263649380356277, 4.000030517578125 0.013333282470703381, 4.000030517578125 0.07999969482421898 M4.000030517578125 0 C4.814234368349422 -0.05106943472608901, 5.9146570616459835 0.38491954427824027, 6.571200572645379 0.9358186576455951 C7.227744083644775 1.48671777101295, 7.790465252063095 2.461368271175661, 7.939291583574498 3.305394680204129 C8.0881179150859 4.149421089232598, 7.892686904225007 5.257752744219912, 7.464158561713798 5.9999771118164045 C7.03563021920259 6.742201479412897, 6.173491371018043 7.46561359012197, 5.3681215285072446 7.758740885783084 C4.562751685996446 8.051868181444197, 3.4373093491598046 8.051868181444197, 2.631939506649006 7.758740885783085 C1.8265696641382072 7.465613590121971, 0.964430815953661 6.7422014794128975, 0.535902473442452 5.9999771118164045 C0.10737413093124304 5.2577527442199115, -0.08805687992965106 4.149421089232597, 0.060769451581752065 3.3053946802041287 C0.20959578309315519 2.461368271175661, 0.7723169515114754 1.4867177710129504, 1.4288604625108707 0.9358186576455956 C2.085403973510266 0.3849195442782408, 3.571502175066915 0.14263649380356277, 4.000030517578124 0 C4.428558860089333 -0.14263649380356277, 4.000030517578125 0.013333282470703381, 4.000030517578125 0.07999969482421898" stroke="#000000" stroke-width="1" fill="none"></path></g><g transform="translate(243.99993896484375 110.59916503280397) rotate(0 4.000030517578125 3.9999847412109375)"><path d="M4.000030517578125 0 C4.814234368349422 -0.05106943472608901, 5.9146570616459835 0.38491954427824027, 6.571200572645379 0.9358186576455951 C7.227744083644775 1.48671777101295, 7.790465252063095 2.461368271175661, 7.939291583574498 3.305394680204129 C8.0881179150859 4.149421089232598, 7.892686904225007 5.257752744219912, 7.464158561713798 5.9999771118164045 C7.03563021920259 6.742201479412897, 6.173491371018043 7.46561359012197, 5.3681215285072446 7.758740885783084 C4.562751685996446 8.051868181444197, 3.4373093491598046 8.051868181444197, 2.631939506649006 7.758740885783085 C1.8265696641382072 7.465613590121971, 0.964430815953661 6.7422014794128975, 0.535902473442452 5.9999771118164045 C0.10737413093124304 5.2577527442199115, -0.08805687992965106 4.149421089232597, 0.060769451581752065 3.3053946802041287 C0.20959578309315519 2.461368271175661, 0.7723169515114754 1.4867177710129504, 1.4288604625108707 0.9358186576455956 C2.085403973510266 0.3849195442782408, 3.571502175066915 0.14263649380356277, 4.000030517578124 0 C4.428558860089333 -0.14263649380356277, 4.000030517578125 0.013333282470703381, 4.000030517578125 0.07999969482421898 M4.000030517578125 0 C4.814234368349422 -0.05106943472608901, 5.9146570616459835 0.38491954427824027, 6.571200572645379 0.9358186576455951 C7.227744083644775 1.48671777101295, 7.790465252063095 2.461368271175661, 7.939291583574498 3.305394680204129 C8.0881179150859 4.149421089232598, 7.892686904225007 5.257752744219912, 7.464158561713798 5.9999771118164045 C7.03563021920259 6.742201479412897, 6.173491371018043 7.46561359012197, 5.3681215285072446 7.758740885783084 C4.562751685996446 8.051868181444197, 3.4373093491598046 8.051868181444197, 2.631939506649006 7.758740885783085 C1.8265696641382072 7.465613590121971, 0.964430815953661 6.7422014794128975, 0.535902473442452 5.9999771118164045 C0.10737413093124304 5.2577527442199115, -0.08805687992965106 4.149421089232597, 0.060769451581752065 3.3053946802041287 C0.20959578309315519 2.461368271175661, 0.7723169515114754 1.4867177710129504, 1.4288604625108707 0.9358186576455956 C2.085403973510266 0.3849195442782408, 3.571502175066915 0.14263649380356277, 4.000030517578124 0 C4.428558860089333 -0.14263649380356277, 4.000030517578125 0.013333282470703381, 4.000030517578125 0.07999969482421898" stroke="none" stroke-width="0" fill="#868e96"></path><path d="M4.000030517578125 0 C4.814234368349422 -0.05106943472608901, 5.9146570616459835 0.38491954427824027, 6.571200572645379 0.9358186576455951 C7.227744083644775 1.48671777101295, 7.790465252063095 2.461368271175661, 7.939291583574498 3.305394680204129 C8.0881179150859 4.149421089232598, 7.892686904225007 5.257752744219912, 7.464158561713798 5.9999771118164045 C7.03563021920259 6.742201479412897, 6.173491371018043 7.46561359012197, 5.3681215285072446 7.758740885783084 C4.562751685996446 8.051868181444197, 3.4373093491598046 8.051868181444197, 2.631939506649006 7.758740885783085 C1.8265696641382072 7.465613590121971, 0.964430815953661 6.7422014794128975, 0.535902473442452 5.9999771118164045 C0.10737413093124304 5.2577527442199115, -0.08805687992965106 4.149421089232597, 0.060769451581752065 3.3053946802041287 C0.20959578309315519 2.461368271175661, 0.7723169515114754 1.4867177710129504, 1.4288604625108707 0.9358186576455956 C2.085403973510266 0.3849195442782408, 3.571502175066915 0.14263649380356277, 4.000030517578124 0 C4.428558860089333 -0.14263649380356277, 4.000030517578125 0.013333282470703381, 4.000030517578125 0.07999969482421898 M4.000030517578125 0 C4.814234368349422 -0.05106943472608901, 5.9146570616459835 0.38491954427824027, 6.571200572645379 0.9358186576455951 C7.227744083644775 1.48671777101295, 7.790465252063095 2.461368271175661, 7.939291583574498 3.305394680204129 C8.0881179150859 4.149421089232598, 7.892686904225007 5.257752744219912, 7.464158561713798 5.9999771118164045 C7.03563021920259 6.742201479412897, 6.173491371018043 7.46561359012197, 5.3681215285072446 7.758740885783084 C4.562751685996446 8.051868181444197, 3.4373093491598046 8.051868181444197, 2.631939506649006 7.758740885783085 C1.8265696641382072 7.465613590121971, 0.964430815953661 6.7422014794128975, 0.535902473442452 5.9999771118164045 C0.10737413093124304 5.2577527442199115, -0.08805687992965106 4.149421089232597, 0.060769451581752065 3.3053946802041287 C0.20959578309315519 2.461368271175661, 0.7723169515114754 1.4867177710129504, 1.4288604625108707 0.9358186576455956 C2.085403973510266 0.3849195442782408, 3.571502175066915 0.14263649380356277, 4.000030517578124 0 C4.428558860089333 -0.14263649380356277, 4.000030517578125 0.013333282470703381, 4.000030517578125 0.07999969482421898" stroke="#000000" stroke-width="1" fill="none"></path></g><g transform="translate(98.80001831054688 323.09913451522584) rotate(0 8.5 17)"><text x="0" y="27" font-family="Cascadia, Segoe UI Emoji" font-size="28px" fill="#000000" text-anchor="start" style="white-space: pre;" direction="ltr">1</text></g><g transform="translate(13.299957275390625 253.39916808456178) rotate(0 8.5 17)"><text x="0" y="27" font-family="Cascadia, Segoe UI Emoji" font-size="28px" fill="#000000" text-anchor="start" style="white-space: pre;" direction="ltr">1</text></g><g transform="translate(145.19998168945312 323.39913756698365) rotate(0 8.5 17)"><text x="0" y="27" font-family="Cascadia, Segoe UI Emoji" font-size="28px" fill="#000000" text-anchor="start" style="white-space: pre;" direction="ltr">2</text></g><g transform="translate(13.699981689453125 214.59910399764772) rotate(0 8.5 17)"><text x="0" y="27" font-family="Cascadia, Segoe UI Emoji" font-size="28px" fill="#000000" text-anchor="start" style="white-space: pre;" direction="ltr">2</text></g><g transform="translate(12.399993896484375 165.8991986021399) rotate(0 8.5 17)"><text x="0" y="27" font-family="Cascadia, Segoe UI Emoji" font-size="28px" fill="#000000" text-anchor="start" style="white-space: pre;" direction="ltr">3</text></g><g transform="translate(186.89993286132812 324.59913451522584) rotate(0 8.5 17)"><text x="0" y="27" font-family="Cascadia, Segoe UI Emoji" font-size="28px" fill="#000000" text-anchor="start" style="white-space: pre;" direction="ltr">3</text></g><g transform="translate(13.199981689453125 128.29915435165162) rotate(0 8.5 17)"><text x="0" y="27" font-family="Cascadia, Segoe UI Emoji" font-size="28px" fill="#000000" text-anchor="start" style="white-space: pre;" direction="ltr">4</text></g><g transform="translate(222.89999389648438 323.3991528257727) rotate(0 8.5 17)"><text x="0" y="27" font-family="Cascadia, Segoe UI Emoji" font-size="28px" fill="#000000" text-anchor="start" style="white-space: pre;" direction="ltr">4</text></g><g transform="translate(10 94.69915587753053) rotate(0 8.5 17)"><text x="0" y="27" font-family="Cascadia, Segoe UI Emoji" font-size="28px" fill="#000000" text-anchor="start" style="white-space: pre;" direction="ltr">5</text></g><g transform="translate(255.49996948242188 327.3991680845618) rotate(0 8.5 17)"><text x="0" y="27" font-family="Cascadia, Segoe UI Emoji" font-size="28px" fill="#000000" text-anchor="start" style="white-space: pre;" direction="ltr">5</text></g><g transform="translate(209.81562074348324 377.3991680845618) rotate(0 84 13)"><text x="168" y="19" font-family="Virgil, Segoe UI Emoji" font-size="16px" fill="#adb5bd" text-anchor="end" style="white-space: pre;" direction="ltr">Made with Excalidraw</text></g></svg>