<svg version="1.1" xmlns="http://www.w3.org/2000/svg" viewBox="0 0 1140.6000518798828 226.24150119884462" width="3421.8001556396484" height="678.7245035965339">
  <!-- svg-source:excalidraw -->
  
  <defs>
    <style>
      @font-face {
        font-family: "Virgil";
        src: url("https://excalidraw.com/FG_Virgil.woff2");
      }
      @font-face {
        font-family: "Cascadia";
        src: url("https://excalidraw.com/Cascadia.woff2");
      }
    </style>
  </defs>
  <g transform="translate(12.600006103515625 10) rotate(0 558.0003547668457 19.20001220703125)"><text x="0" y="27.400024414062514" font-family="Virgil, Segoe UI Emoji" font-size="24.00001525878907px" fill="#000000" text-anchor="start" style="white-space: pre;" direction="ltr">Adam is good in playing Football and this time he is representing his college at National Level</text></g><g><g transform="translate(10 47.5) rotate(0 189.59999084472656 0)"><path d="M0 0 C63.19999694824219 0, 315.99998474121094 0, 379.1999816894531 0 M0 0 C63.19999694824219 0, 315.99998474121094 0, 379.1999816894531 0" stroke="#d9480f" stroke-width="4" fill="none"></path></g></g><g><g transform="translate(454.6000213623047 46.30000305175781) rotate(0 338.00001525878906 0.40000152587890625)"><path d="M0 0 C112.66667175292969 0.1333338419596354, 563.3333587646484 0.6666692097981771, 676.0000305175781 0.8000030517578125 M0 0 C112.66667175292969 0.1333338419596354, 563.3333587646484 0.6666692097981771, 676.0000305175781 0.8000030517578125" stroke="#364fc7" stroke-width="4" fill="none"></path></g></g><g transform="translate(399.0000305175781 11.5) rotate(0 24.399993896484375 18.800018310546875)"><path d="M0 0 C10.278262056409586 0, 20.556524112819172 0, 48.79998779296875 0 M0 0 C10.254418812099175 0, 20.50883762419835 0, 48.79998779296875 0 M48.79998779296875 0 C48.79998779296875 12.316071060278773, 48.79998779296875 24.632142120557546, 48.79998779296875 37.60003662109375 M48.79998779296875 0 C48.79998779296875 9.844397453158308, 48.79998779296875 19.688794906316616, 48.79998779296875 37.60003662109375 M48.79998779296875 37.60003662109375 C34.03038591765871 37.60003662109375, 19.260784042348675 37.60003662109375, 0 37.60003662109375 M48.79998779296875 37.60003662109375 C33.22270227036133 37.60003662109375, 17.645416747753913 37.60003662109375, 0 37.60003662109375 M0 37.60003662109375 C0 25.424615722217276, 0 13.249194823340801, 0 0 M0 37.60003662109375 C0 25.825407185419316, 0 14.050777749744881, 0 0" stroke="#5c940d" stroke-width="4" fill="none"></path></g><g><g transform="translate(428.58541095011174 56.50000000000006) rotate(0 3.1038891158782462 22.308528234950103)"><path d="M0 0 C1.0346297052927487 7.436176078316701, 5.173148526463744 37.18088039158351, 6.2077782317564925 44.617056469900206 M0 0 C1.0346297052927487 7.436176078316701, 5.173148526463744 37.18088039158351, 6.2077782317564925 44.617056469900206" stroke="#5c940d" stroke-width="4" fill="none"></path></g><g transform="translate(428.58541095011174 56.50000000000006) rotate(0 3.1038891158782462 22.308528234950103)"><path d="M-4.338889490474351 24.715489707203172 C-0.2798435998404809 32.374911138962666, 3.779202290793389 40.03433257072216, 6.2077782317564925 44.617056469900206 M-4.338889490474351 24.715489707203172 C-0.43804849384571654 32.07637843240987, 3.462792502782918 39.43726715761656, 6.2077782317564925 44.617056469900206" stroke="#5c940d" stroke-width="4" fill="none"></path></g><g transform="translate(428.58541095011174 56.50000000000006) rotate(0 3.1038891158782462 22.308528234950103)"><path d="M10.92104255813037 22.592304506643853 C9.107070913312834 31.068866137598135, 7.293099268495297 39.545427768552415, 6.2077782317564925 44.617056469900206 M10.92104255813037 22.592304506643853 C9.177772058244223 30.738484670995756, 7.434501558358074 38.884664835347664, 6.2077782317564925 44.617056469900206" stroke="#5c940d" stroke-width="4" fill="none"></path></g></g><g transform="translate(328.5999450683594 107.61711750505657) rotate(0 142.79998779296875 38.312191846894024)"><text x="0" y="28.31219184689403" font-family="Virgil, Segoe UI Emoji" font-size="24.380485720750766px" fill="#5c940d" text-anchor="start" style="white-space: pre;" direction="ltr">Joining two propositions</text><text x="0" y="66.62438369378806" font-family="Virgil, Segoe UI Emoji" font-size="24.380485720750766px" fill="#5c940d" text-anchor="start" style="white-space: pre;" direction="ltr">with logical connective</text></g><g transform="translate(78.99996948242188 108.40000915527344) rotate(0 83.5 22)"><text x="0" y="32" font-family="Virgil, Segoe UI Emoji" font-size="28px" fill="#d9480f" text-anchor="start" style="white-space: pre;" direction="ltr">Proposition 1</text></g><g><g transform="translate(149.8915224947366 105.90003967285156) rotate(0 -2.3384918886014248 -23.20001983642578)"><path d="M0 0 C-0.7794972962004749 -7.733339945475261, -3.8974864810023746 -38.666699727376304, -4.6769837772028495 -46.40003967285156 M0 0 C-0.7794972962004749 -7.733339945475261, -3.8974864810023746 -38.666699727376304, -4.6769837772028495 -46.40003967285156" stroke="#d9480f" stroke-width="4" fill="none"></path></g><g transform="translate(149.8915224947366 105.90003967285156) rotate(0 -2.3384918886014248 -23.20001983642578)"><path d="M5.455353903896315 -25.39896356138093 C3.377100080967982 -29.70651509469481, 1.2988462580396494 -34.01406662800869, -4.6769837772028495 -46.40003967285156 M5.455353903896315 -25.39896356138093 C3.2247687439306616 -30.02224894644459, 0.9941835839650084 -34.64553433150825, -4.6769837772028495 -46.40003967285156" stroke="#d9480f" stroke-width="4" fill="none"></path></g><g transform="translate(149.8915224947366 105.90003967285156) rotate(0 -2.3384918886014248 -23.20001983642578)"><path d="M-10.41439431532909 -23.799340899570183 C-9.237588354073695 -28.43499262227593, -8.0607823928183 -33.07064434498168, -4.6769837772028495 -46.40003967285156 M-10.41439431532909 -23.799340899570183 C-9.151331120460656 -28.774775480927975, -7.888267925592219 -33.75021006228577, -4.6769837772028495 -46.40003967285156" stroke="#d9480f" stroke-width="4" fill="none"></path></g></g><g transform="translate(753.7999572753906 107.69999694824219) rotate(0 91.5 22)"><text x="0" y="32" font-family="Virgil, Segoe UI Emoji" font-size="28px" fill="#364fc7" text-anchor="start" style="white-space: pre;" direction="ltr">Proposition 2</text></g><g><g transform="translate(845.7138878598732 104.30000305175781) rotate(0 -1.6083139965604687 -24)"><path d="M0 0 C-0.5361046655201562 -8, -2.680523327600781 -40, -3.2166279931209374 -48 M0 0 C-0.5361046655201562 -8, -2.680523327600781 -40, -3.2166279931209374 -48" stroke="#364fc7" stroke-width="4" fill="none"></path></g><g transform="translate(845.7138878598732 104.30000305175781) rotate(0 -1.6083139965604687 -24)"><path d="M6.503176241169678 -25.997452884754487 C3.8663954865076184 -31.966286349769103, 1.229614731845559 -37.93511981478372, -3.2166279931209374 -48 M6.503176241169678 -25.997452884754487 C3.128084328896556 -33.63758812082113, -0.2470075833765657 -41.27772335688776, -3.2166279931209374 -48" stroke="#364fc7" stroke-width="4" fill="none"></path></g><g transform="translate(845.7138878598732 104.30000305175781) rotate(0 -1.6083139965604687 -24)"><path d="M-9.913790638462421 -24.897301317521908 C-8.096989687700589 -31.16458302385564, -6.280188736938756 -37.431864730189375, -3.2166279931209374 -48 M-9.913790638462421 -24.897301317521908 C-7.588276776801874 -32.91945172255067, -5.262762915141327 -40.94160212757943, -3.2166279931209374 -48" stroke="#364fc7" stroke-width="4" fill="none"></path></g></g><g transform="translate(962.6000518798828 200.24150119884462) rotate(0 84 13)"><text x="168" y="19" font-family="Virgil, Segoe UI Emoji" font-size="16px" fill="#adb5bd" text-anchor="end" style="white-space: pre;" direction="ltr">Made with Excalidraw</text></g></svg>